PathFileType	4	(X/Y/Z)	s02c0301.trc
DataRate	CameraRate	NumFrames	NumMarkers	Units	OrigDataRate	OrigDataStartFrame	OrigNumFrames
200	200	5	51	mm	200	1250	2000
Frame#	Time	racr			lacr			c7			jug			rlel			rdr			llel			ldr			s2			lic			ric			lasi			rasi			rpsi			lpsi			rgt			lgt			rth1			rth2			rth3			rth4			rlfc			rmfc			rsh1			rsh2			rsh3			rsh4			rlmal			rmmal			rcal			rtoe			rmt5			rmt1			lth1			lth2			lth4			lth3			llfc			lmfc			lsh1			lsh2			lsh3			lsh4			llmal			lmmal			lcal			ltoe			lmt5			SBIKE			LBIKE			RBIKE			
		X1	Y1	Z1	X2	Y2	Z2	X3	Y3	Z3	X4	Y4	Z4	X5	Y5	Z5	X6	Y6	Z6	X7	Y7	Z7	X8	Y8	Z8	X9	Y9	Z9	X10	Y10	Z10	X11	Y11	Z11	X12	Y12	Z12	X13	Y13	Z13	X14	Y14	Z14	X15	Y15	Z15	X16	Y16	Z16	X17	Y17	Z17	X18	Y18	Z18	X19	Y19	Z19	X20	Y20	Z20	X21	Y21	Z21	X22	Y22	Z22	X23	Y23	Z23	X24	Y24	Z24	X25	Y25	Z25	X26	Y26	Z26	X27	Y27	Z27	X28	Y28	Z28	X29	Y29	Z29	X30	Y30	Z30	X31	Y31	Z31	X32	Y32	Z32	X33	Y33	Z33	X34	Y34	Z34	X35	Y35	Z35	X36	Y36	Z36	X37	Y37	Z37	X38	Y38	Z38	X39	Y39	Z39	X40	Y40	Z40	X41	Y41	Z41	X42	Y42	Z42	X43	Y43	Z43	X44	Y44	Z44	X45	Y45	Z45	X46	Y46	Z46	X47	Y47	Z47	X48	Y48	Z48	X49	Y49	Z49	X50	Y50	Z50	X51	Y51	Z51	
1250	6.2500	683.042218	1205.679294	-52.388549	780.877158	1228.129280	-381.066732	738.366810	1255.635992	-213.603033	0.000000	0.000000	-0.000000	565.217722	968.931578	-31.673508	716.224374	853.620877	-114.908328	666.638100	1052.087800	-584.944539	731.665435	849.405994	-519.161575	219.156934	1206.300652	-374.739306	379.766315	1185.649739	-479.222053	296.139659	1191.769504	-207.027318	404.526187	1136.725369	-450.364750	346.806607	1152.642172	-220.368541	242.632080	1258.688229	-323.466225	277.320438	1272.304990	-404.819387	259.593828	1116.795348	-178.306950	312.960042	1099.080800	-532.229982	338.093469	1059.471546	-152.164071	411.884688	1013.187204	-140.657989	450.300482	944.490237	-107.253700	438.076350	1031.399650	-161.775622	530.200250	815.818244	-124.946815	547.738957	799.632856	-234.950810	496.402568	705.817223	-115.799057	479.776806	621.390062	-140.166825	425.299402	555.607289	-149.534936	501.494328	618.025941	-173.410359	366.131320	458.979524	-166.865600	385.331567	476.747457	-245.365192	297.556565	432.175458	-213.105006	570.528444	371.986833	-183.138734	454.814645	370.692099	-133.736425	494.468145	384.516719	-237.919146	388.329525	969.938488	-520.591686	433.238935	896.096495	-510.035394	461.998337	906.322331	-490.463234	435.929765	807.510163	-511.554900	449.709258	707.607054	-490.658689	429.437770	680.023165	-388.130230	384.867268	623.590493	-515.427899	339.821801	551.162380	-501.547084	262.624824	504.815841	-510.266619	351.504392	541.255158	-463.495374	170.844817	434.285929	-505.294220	181.824498	424.254671	-426.077068	96.600870	455.954460	-464.108442	227.114127	200.888933	-434.969161	156.619208	273.288543	-506.756030	-128.111596	871.224740	-312.795808	32.918296	83.079327	-515.091904	33.023330	82.341019	-114.960954	
1251	6.2550	685.604758	1203.899906	-53.734412	780.370106	1229.060015	-383.506882	739.821991	1255.482424	-215.356153	0.000000	0.000000	-0.000000	565.591105	968.772655	-30.413226	716.182507	853.621413	-114.666435	665.121248	1051.361316	-585.311184	731.348224	849.161455	-519.450468	218.799713	1206.382970	-373.260007	378.854258	1187.170414	-478.215408	297.083054	1190.123942	-205.294726	404.185497	1138.144659	-449.796815	347.711058	1150.918665	-219.394440	242.453907	1259.207599	-320.466104	277.012897	1272.890910	-403.722509	259.485938	1114.485442	-177.649717	313.671222	1101.155795	-532.558892	336.666537	1055.197736	-152.415213	410.288958	1007.979339	-140.773911	447.463596	938.077361	-108.349538	436.808838	1026.082359	-161.473015	525.706044	809.494294	-126.954033	543.206318	791.257704	-234.585576	493.110140	699.350098	-116.643252	477.922939	614.317916	-139.916678	424.427524	547.456827	-149.355340	500.351020	610.576855	-172.699654	368.214424	448.497378	-166.559431	387.318258	466.372398	-245.281494	298.217661	419.909279	-213.049869	572.760256	360.646968	-183.349770	457.080060	359.817280	-133.820047	496.713445	373.983767	-237.695806	390.830935	972.216127	-519.452200	436.993043	899.176223	-508.691299	465.405376	910.001127	-488.923403	441.186879	810.593349	-510.150521	455.978403	711.000845	-489.045943	435.583531	683.577129	-386.091373	390.417359	627.586256	-513.754651	343.786169	556.236022	-499.727894	265.642201	511.575010	-508.707036	354.759661	545.923121	-460.581884	172.060118	444.168484	-504.756801	182.179943	433.974952	-425.314870	98.052176	466.948719	-463.896704	224.219696	209.721253	-435.014470	155.201893	283.471224	-506.564432	-128.121312	871.149954	-313.048198	32.929375	82.871506	-515.175817	32.543415	82.953857	-114.948901	
1252	6.2600	688.303144	1202.087369	-55.226992	779.729439	1230.007608	-386.251594	741.336419	1255.174337	-217.510129	0.000000	0.000000	-0.000000	566.348026	968.582514	-28.808440	716.159227	853.602266	-114.420924	663.519566	1050.474275	-585.765214	730.757162	848.874862	-519.488960	218.619047	1206.158118	-371.159409	377.804352	1188.440771	-477.203211	298.094243	1188.147692	-203.422996	403.663860	1139.339618	-449.127707	348.790636	1149.143442	-218.290351	242.034719	1259.015748	-317.679092	276.617448	1273.195818	-401.638669	259.531856	1111.691864	-176.926288	314.035552	1103.042111	-532.660403	335.932480	1050.932500	-152.190026	408.630203	1002.370428	-141.193962	444.919915	931.410643	-109.750972	435.706108	1020.626640	-161.205215	521.679735	803.008139	-129.139106	538.997286	784.843552	-237.210906	490.408629	692.804118	-118.231292	476.858300	607.135369	-140.367774	424.425159	539.549023	-149.135912	499.069555	603.632156	-173.304435	370.297713	438.059641	-165.932614	389.899198	456.524811	-245.301379	298.615911	408.000707	-212.945904	574.443554	348.784626	-183.493105	458.901017	348.645047	-133.714831	498.840978	363.891749	-236.062189	393.107682	974.338573	-518.310555	440.412343	902.103068	-507.325106	468.559080	913.390604	-487.447644	446.250340	813.557490	-508.950858	462.312941	714.267346	-487.346470	441.781402	687.089733	-384.070956	396.099888	631.729906	-511.921567	347.634555	561.139639	-497.767595	268.837092	518.418949	-507.211113	358.422687	551.147493	-458.703211	173.421310	454.262385	-504.183095	182.838899	443.850031	-424.495615	99.618384	477.988255	-463.842765	222.255541	219.177608	-435.150582	154.365377	293.820046	-506.549854	-128.171039	871.050171	-313.269708	32.799582	82.386254	-515.369644	32.544549	82.905623	-114.976841	
1253	6.2650	691.186446	1200.085331	-56.989257	779.076857	1230.998471	-389.184491	742.862325	1254.933741	-220.333354	0.000000	0.000000	-0.000000	567.454521	968.261528	-26.903047	716.222686	853.003681	-114.672890	661.845566	1049.503390	-586.258949	729.835623	848.541951	-519.192796	218.525026	1205.382735	-368.696381	376.556911	1189.345001	-476.028477	299.022090	1185.818523	-202.651718	403.040008	1140.166437	-448.580969	350.058850	1147.269350	-217.101883	241.503912	1258.338884	-314.185885	275.094798	1273.584711	-396.717185	259.672477	1108.599855	-176.644379	314.044866	1104.700950	-532.601857	335.400840	1046.597254	-151.930415	407.522334	996.971707	-141.441885	442.608564	924.888438	-111.050239	434.629417	1015.476504	-160.870193	518.364505	796.068980	-131.421566	534.539367	778.500875	-239.752410	488.392699	685.842602	-120.036039	476.153748	599.408273	-141.902980	424.981411	531.247961	-148.889715	497.709804	596.769580	-175.387112	371.883429	427.841214	-165.019560	390.115589	445.715881	-243.517489	298.748480	396.517518	-212.796808	575.660013	336.455380	-183.906049	460.234459	337.282496	-133.631632	499.979160	351.979832	-236.927036	395.099963	976.232084	-517.202624	443.650077	904.943205	-505.991094	471.490031	916.591732	-485.915492	451.196444	816.527388	-507.832367	469.025519	717.520845	-485.375854	448.118444	690.606032	-381.956216	401.859972	635.961964	-510.036475	351.621527	566.635360	-495.973888	272.034622	525.546128	-505.926425	362.151144	555.840680	-456.712841	175.024906	464.685085	-503.529209	183.840884	453.842572	-423.634647	101.182053	489.096731	-463.221890	220.959727	228.850628	-435.075743	154.015336	304.581789	-506.480945	-128.228125	870.974094	-313.488371	32.937669	82.632857	-515.243870	33.025559	82.268526	-115.038140	
1254	6.2700	694.092932	1198.129498	-58.939304	778.299940	1232.071126	-392.353414	744.275772	1254.812605	-223.078500	0.000000	0.000000	-0.000000	568.932573	967.945092	-24.979829	716.410293	852.922347	-114.315143	660.102698	1048.484088	-586.747499	728.556697	848.160224	-518.519661	218.058729	1204.685807	-366.321056	375.134057	1190.082318	-474.900352	300.383718	1183.551818	-200.563070	402.274450	1140.929548	-447.879818	351.591329	1145.188890	-215.810052	240.877530	1256.861295	-310.547098	273.987553	1272.859329	-393.772785	260.523924	1105.400682	-175.860243	313.658607	1106.168162	-532.276390	335.135777	1042.247210	-151.618264	406.509100	991.204690	-141.996993	440.625630	918.388714	-112.430671	433.875510	1009.767234	-160.937464	515.093729	789.161045	-133.929617	529.717494	772.130434	-242.383581	487.010847	678.423529	-122.331831	476.173947	591.912142	-143.075763	426.039547	522.505525	-149.147633	496.317248	589.772271	-177.347807	373.220641	417.802047	-164.297713	391.692659	435.817405	-243.160218	298.612624	385.527491	-212.606251	576.440397	324.370589	-184.001383	460.996033	326.192513	-133.633548	500.536751	340.775837	-236.873179	396.846294	977.923488	-516.131854	446.733676	907.615889	-504.723467	474.268015	919.873453	-484.575213	456.114709	819.442370	-506.531310	475.835038	720.946645	-483.322061	454.317687	694.375842	-379.858808	407.693234	640.415132	-508.132912	355.617086	572.336129	-494.232445	275.085864	533.289848	-504.604285	365.761922	561.216962	-454.918480	176.665464	475.294269	-502.657298	185.228093	463.914753	-422.726208	102.780260	500.262552	-462.812838	220.649632	239.070969	-435.210948	154.231303	315.449870	-506.313081	-128.242269	870.953001	-313.582947	32.943902	82.568113	-515.271740	33.014448	82.249989	-115.041366	
